<svg
  xmlns="http://www.w3.org/2000/svg"
  viewBox="0 0 64 64"
  role="img"
  aria-labelledby="favicon-title favicon-desc"
>
  <title id="favicon-title">chatdump favicon</title>
  <desc id="favicon-desc">
    A warm paper tile containing the chatdump chat-document symbol.
  </desc>
  <defs>
    <linearGradient id="favicon-tile" x1="8" y1="8" x2="56" y2="56" gradientUnits="userSpaceOnUse">
      <stop offset="0" stop-color="#FCF8F1" />
      <stop offset="1" stop-color="#EEE5D9" />
    </linearGradient>
    <linearGradient id="favicon-stream" x1="20" y1="50" x2="45" y2="25" gradientUnits="userSpaceOnUse">
      <stop offset="0" stop-color="#BC8442" />
      <stop offset="1" stop-color="#31433A" />
    </linearGradient>
  </defs>
  <rect
    x="5"
    y="5"
    width="54"
    height="54"
    rx="16"
    fill="url(#favicon-tile)"
    stroke="#161310"
    stroke-opacity="0.12"
  />
  <g transform="translate(1 1)">
    <path
      d="M22 12h17.5L50 22.5V44a8 8 0 0 1-8 8H27.4L16 57l3.3-10A8 8 0 0 1 14 39.5V20a8 8 0 0 1 8-8Z"
      fill="#FBF8F3"
      stroke="#161310"
      stroke-linejoin="round"
      stroke-width="2.7"
    />
    <path
      d="M39.5 12v8.1a2.4 2.4 0 0 0 2.4 2.4H50"
      fill="none"
      stroke="#161310"
      stroke-linecap="round"
      stroke-linejoin="round"
      stroke-width="2.7"
    />
    <path
      d="M19.3 49c3.4-7 7.8-13.1 13.8-17.8 3.7-2.9 7.9-5 12.5-6.2"
      fill="none"
      stroke="url(#favicon-stream)"
      stroke-linecap="round"
      stroke-width="4.9"
    />
    <rect x="29.5" y="26.5" width="12.2" height="2.4" rx="1.2" fill="#BC8442" />
    <rect x="29.5" y="32.3" width="14.2" height="2.4" rx="1.2" fill="#31433A" />
    <rect x="29.5" y="38.1" width="11.2" height="2.4" rx="1.2" fill="#31433A" />
  </g>
</svg>
