<svg
  xmlns="http://www.w3.org/2000/svg"
  viewBox="0 0 360 96"
  role="img"
  aria-labelledby="logo-horizontal-title logo-horizontal-desc"
>
  <title id="logo-horizontal-title">chatdump horizontal logo</title>
  <desc id="logo-horizontal-desc">
    The chatdump wordmark paired with a single chat-document symbol.
  </desc>
  <defs>
    <linearGradient id="horizontal-stream" x1="19" y1="48" x2="46" y2="24" gradientUnits="userSpaceOnUse">
      <stop offset="0" stop-color="#BC8442" />
      <stop offset="1" stop-color="#31433A" />
    </linearGradient>
  </defs>
  <g transform="translate(8 8)">
    <path
      d="M22 12h17.5L50 22.5V44a8 8 0 0 1-8 8H27.4L16 57l3.3-10A8 8 0 0 1 14 39.5V20a8 8 0 0 1 8-8Z"
      fill="#FBF8F3"
      stroke="#161310"
      stroke-linejoin="round"
      stroke-width="2.6"
    />
    <path
      d="M39.5 12v8.1a2.4 2.4 0 0 0 2.4 2.4H50"
      fill="none"
      stroke="#161310"
      stroke-linecap="round"
      stroke-linejoin="round"
      stroke-width="2.6"
    />
    <path
      d="M19.3 49c3.4-7 7.8-13.1 13.8-17.8 3.7-2.9 7.9-5 12.5-6.2"
      fill="none"
      stroke="url(#horizontal-stream)"
      stroke-linecap="round"
      stroke-width="4.9"
    />
    <rect x="29.5" y="26.5" width="12.2" height="2.4" rx="1.2" fill="#BC8442" />
    <rect x="29.5" y="32.3" width="14.2" height="2.4" rx="1.2" fill="#31433A" />
    <rect x="29.5" y="38.1" width="11.2" height="2.4" rx="1.2" fill="#31433A" />
  </g>
  <g transform="translate(92 51)">
    <text
      x="0"
      y="0"
      fill="#161310"
      font-family="'IBM Plex Mono', 'SFMono-Regular', 'Menlo', monospace"
      font-size="29"
      font-weight="600"
      letter-spacing="0.5"
    >
      chatdump
    </text>
    <text
      x="2"
      y="24"
      fill="#897D70"
      font-family="'IBM Plex Mono', 'SFMono-Regular', 'Menlo', monospace"
      font-size="10"
      letter-spacing="3.2"
    >
      PUBLIC CHAT EXPORT
    </text>
  </g>
</svg>
