<svg
  xmlns="http://www.w3.org/2000/svg"
  viewBox="0 0 64 64"
  role="img"
  aria-labelledby="logo-mark-title logo-mark-desc"
>
  <title id="logo-mark-title">chatdump logo mark</title>
  <desc id="logo-mark-desc">
    A single chat-document symbol with a folded corner and an export stream.
  </desc>
  <defs>
    <linearGradient id="chatdump-stream" x1="19" y1="48" x2="46" y2="24" gradientUnits="userSpaceOnUse">
      <stop offset="0" stop-color="#BC8442" />
      <stop offset="1" stop-color="#31433A" />
    </linearGradient>
  </defs>
  <path
    d="M22 12h17.5L50 22.5V44a8 8 0 0 1-8 8H27.4L16 57l3.3-10A8 8 0 0 1 14 39.5V20a8 8 0 0 1 8-8Z"
    fill="#FBF8F3"
    stroke="#161310"
    stroke-linejoin="round"
    stroke-width="2.75"
  />
  <path
    d="M39.5 12v8.1a2.4 2.4 0 0 0 2.4 2.4H50"
    fill="none"
    stroke="#161310"
    stroke-linecap="round"
    stroke-linejoin="round"
    stroke-width="2.75"
  />
  <path
    d="M19.3 49c3.4-7 7.8-13.1 13.8-17.8 3.7-2.9 7.9-5 12.5-6.2"
    fill="none"
    stroke="url(#chatdump-stream)"
    stroke-linecap="round"
    stroke-width="5.1"
  />
  <rect x="29.5" y="26.5" width="12.5" height="2.5" rx="1.25" fill="#BC8442" />
  <rect x="29.5" y="32.5" width="14.5" height="2.5" rx="1.25" fill="#31433A" />
  <rect x="29.5" y="38.5" width="11.5" height="2.5" rx="1.25" fill="#31433A" />
</svg>
