<svg
  xmlns="http://www.w3.org/2000/svg"
  viewBox="0 0 64 64"
  role="img"
  aria-labelledby="logo-mark-title logo-mark-desc"
>
  <title id="logo-mark-title">chatdump logo mark</title>
  <desc id="logo-mark-desc">
    A chat bubble transforming into a structured document using brass and olive accents.
  </desc>
  <defs>
    <linearGradient id="chatdump-stream" x1="15" y1="28" x2="52" y2="34" gradientUnits="userSpaceOnUse">
      <stop offset="0" stop-color="#BC8442" />
      <stop offset="1" stop-color="#31433A" />
    </linearGradient>
  </defs>
  <g fill="none" stroke="#161310" stroke-linecap="round" stroke-linejoin="round">
    <path
      d="M35 13h10l8 8v23a6 6 0 0 1-6 6H33a6 6 0 0 1-6-6V19a6 6 0 0 1 6-6Z"
      fill="#FBF8F3"
      stroke-width="2.75"
    />
    <path d="M45 13v8h8" stroke-width="2.75" />
    <path
      d="M19.3 19.5h7.5c6.8 0 12.2 5.1 12.2 11.4s-5.4 11.4-12.2 11.4h-4.7L15 46l2.5-6.2a10.84 10.84 0 0 1-5.4-8.9c0-6.3 5.5-11.4 12.2-11.4Z"
      fill="#FBF8F3"
      stroke-width="2.75"
    />
    <path d="M35.5 27h8.5" stroke="#BC8442" stroke-width="2.5" />
    <path d="M35.5 32.5H47" stroke="#31433A" stroke-width="2.5" />
    <path d="M35.5 38H47" stroke="#31433A" stroke-width="2.5" />
    <path d="M35.5 43.5h7.5" stroke="#31433A" stroke-width="2.5" />
    <path
      d="M18.7 34.1c4.9-5.2 9.5-7.4 14-7.4 7.5 0 10.1 6.3 15.1 6.3H53"
      stroke="url(#chatdump-stream)"
      stroke-width="4.75"
    />
  </g>
</svg>
